<svg width="32" height="32" viewBox="0 0 32 32" fill="none" xmlns="http://www.w3.org/2000/svg">
<path fill-rule="evenodd" clip-rule="evenodd" d="M5.36372 23C5.27572 23 5.20372 22.972 5.14772 22.916C5.09172 22.86 5.06372 22.788 5.06372 22.7V14.9C5.06372 14.812 5.09172 14.74 5.14772 14.684C5.20372 14.628 5.27572 14.6 5.36372 14.6H8.63972C9.28772 14.6 9.84772 14.7 10.3197 14.9C10.7997 15.1 11.1717 15.404 11.4357 15.812C11.7077 16.212 11.8437 16.712 11.8437 17.312C11.8437 17.92 11.7077 18.424 11.4357 18.824C11.1717 19.216 10.7997 19.508 10.3197 19.7C9.84772 19.892 9.28772 19.988 8.63972 19.988H7.03172V22.7C7.03172 22.788 7.00372 22.86 6.94772 22.916C6.89172 22.972 6.81972 23 6.73172 23H5.36372ZM6.99572 18.5H8.57972C8.98772 18.5 9.30372 18.4 9.52772 18.2C9.75972 18 9.87572 17.7 9.87572 17.3C9.87572 16.948 9.77172 16.66 9.56372 16.436C9.36372 16.212 9.03572 16.1 8.57972 16.1H6.99572V18.5Z" fill="#161616"/>
<path fill-rule="evenodd" clip-rule="evenodd" d="M13.3676 23C13.2796 23 13.2076 22.972 13.1516 22.916C13.0956 22.86 13.0676 22.788 13.0676 22.7V14.9C13.0676 14.812 13.0956 14.74 13.1516 14.684C13.2076 14.628 13.2796 14.6 13.3676 14.6H16.3796C17.1796 14.6 17.8476 14.728 18.3836 14.984C18.9196 15.232 19.3276 15.6 19.6076 16.088C19.8956 16.568 20.0476 17.164 20.0636 17.876C20.0716 18.228 20.0756 18.536 20.0756 18.8C20.0756 19.064 20.0716 19.368 20.0636 19.712C20.0396 20.456 19.8916 21.072 19.6196 21.56C19.3476 22.048 18.9476 22.412 18.4196 22.652C17.8916 22.884 17.2316 23 16.4396 23H13.3676ZM14.9756 21.452H16.3796C16.7796 21.452 17.1076 21.392 17.3636 21.272C17.6196 21.152 17.8076 20.964 17.9276 20.708C18.0556 20.444 18.1236 20.104 18.1316 19.688C18.1396 19.456 18.1436 19.248 18.1436 19.064C18.1516 18.88 18.1516 18.696 18.1436 18.512C18.1436 18.328 18.1396 18.124 18.1316 17.9C18.1156 17.3 17.9596 16.86 17.6636 16.58C17.3756 16.292 16.9276 16.148 16.3196 16.148H14.9756V21.452Z" fill="#161616"/>
<path d="M21.6594 22.916C21.7154 22.972 21.7874 23 21.8754 23H23.1474C23.2354 23 23.3074 22.972 23.3634 22.916C23.4194 22.86 23.4474 22.788 23.4474 22.7V19.856H26.9874C27.0754 19.856 27.1474 19.828 27.2034 19.772C27.2594 19.716 27.2874 19.648 27.2874 19.568V18.548C27.2874 18.46 27.2594 18.388 27.2034 18.332C27.1474 18.276 27.0754 18.248 26.9874 18.248H23.4474V16.22H27.2274C27.3154 16.22 27.3874 16.192 27.4434 16.136C27.4994 16.08 27.5274 16.008 27.5274 15.92V14.9C27.5274 14.812 27.4994 14.74 27.4434 14.684C27.3874 14.628 27.3154 14.6 27.2274 14.6H21.8754C21.7874 14.6 21.7154 14.628 21.6594 14.684C21.6034 14.74 21.5754 14.812 21.5754 14.9V22.7C21.5754 22.788 21.6034 22.86 21.6594 22.916Z" fill="#161616"/>
<path fill-rule="evenodd" clip-rule="evenodd" d="M28 0H4C1.79086 0 0 1.79086 0 4V28C0 30.2091 1.79086 32 4 32H28C30.2091 32 32 30.2091 32 28V4C32 1.79086 30.2091 0 28 0ZM30 4V6H26V2H28C29.1046 2 30 2.89543 30 4ZM24 8H30V28C30 29.1046 29.1046 30 28 30H4C2.89543 30 2 29.1046 2 28V4C2 2.89543 2.89543 2 4 2H24V8Z" fill="#161616"/>
</svg>
