<svg width="114" height="32" viewBox="0 0 114 32" fill="none" xmlns="http://www.w3.org/2000/svg">
<g clip-path="url(#clip0_430_397)">
<path d="M23.818 16.4535C28.2752 16.4535 31.8884 12.7703 31.8884 8.22676C31.8884 3.68325 28.2752 0 23.818 0C19.3608 0 15.7476 3.68325 15.7476 8.22676C15.7476 12.7703 19.3608 16.4535 23.818 16.4535Z" fill="url(#paint0_radial_430_397)"/>
<path d="M23.8181 16.3903C27.1666 16.3903 29.8812 13.6231 29.8812 10.2097C29.8812 6.79621 27.1666 4.02905 23.8181 4.02905C20.4695 4.02905 17.7549 6.79621 17.7549 10.2097C17.7549 13.6231 20.4695 16.3903 23.8181 16.3903Z" fill="url(#paint1_radial_430_397)"/>
<path d="M23.8179 16.3059C26.0465 16.3059 27.8531 14.4642 27.8531 12.1925C27.8531 9.92073 26.0465 8.0791 23.8179 8.0791C21.5893 8.0791 19.7827 9.92073 19.7827 12.1925C19.7827 14.4642 21.5893 16.3059 23.8179 16.3059Z" fill="url(#paint2_radial_430_397)"/>
<path d="M9.29134 32C7.42893 32 5.79416 31.6414 4.4077 30.9452C3.02124 30.228 1.94518 29.2155 1.15883 27.8655C0.393175 26.5155 0 24.8912 0 23.0138C0 21.1364 0.393175 19.47 1.15883 18.0777C1.92449 16.6855 3.02124 15.5886 4.4077 14.8081C5.81485 14.0276 7.44963 13.6479 9.33273 13.6479C9.95353 13.6479 10.6364 13.6901 11.34 13.7956C12.0436 13.88 12.6644 14.0066 13.1817 14.1542C13.4921 14.2386 13.7818 14.323 14.0508 14.3862C14.3198 14.4495 14.5889 14.4917 14.8372 14.4917C15.0441 14.4917 15.2304 14.4706 15.4373 14.4073C15.4787 15.1456 15.4994 15.9261 15.5408 16.7066C15.5821 17.4871 15.6235 18.3309 15.6856 19.1957C15.3338 19.2379 15.0441 19.259 14.8165 19.2379C14.4854 17.677 13.8853 16.5379 12.9955 15.7785C12.1263 15.0191 10.9468 14.6605 9.49828 14.6605C8.33945 14.6605 7.34616 14.8714 6.53912 15.3144C5.73208 15.7574 5.04919 16.3269 4.55255 17.0652C4.05591 17.8035 3.68343 18.6684 3.4558 19.6387C3.22817 20.6091 3.10401 21.6427 3.10401 22.7396C3.10401 24.3427 3.35233 25.7561 3.82828 27.0006C4.30423 28.2241 5.04919 29.1944 6.02178 29.8905C7.01507 30.5866 8.23598 30.9452 9.7259 30.9452C10.1812 30.9452 10.6985 30.9031 11.2572 30.7976C11.8159 30.6921 12.354 30.5656 12.8713 30.3546V27.1694C12.8713 26.642 12.8506 26.2412 12.8092 25.9459C12.7678 25.6506 12.6644 25.4396 12.4781 25.292C12.3126 25.1654 12.0229 25.0599 11.6504 24.9967C11.2779 24.9334 10.7606 24.8912 10.1191 24.8279C10.0777 24.5537 10.0777 24.2795 10.1191 24.0263C10.4709 24.0263 10.8847 24.0263 11.3814 24.0263C11.878 24.0263 12.3747 24.0263 12.892 24.0474C13.3886 24.0474 13.8232 24.0474 14.1543 24.0474C14.6716 24.0474 15.251 24.0474 15.9339 24.0263C16.5961 24.0263 17.1755 24.0052 17.6515 24.0052C17.6929 24.2584 17.6929 24.5115 17.6515 24.7857C16.9686 24.8701 16.4926 24.9545 16.1822 25.0389C15.8718 25.1232 15.7063 25.292 15.6442 25.5451C15.5821 25.7982 15.5408 26.2201 15.5408 26.8319V27.6334C15.5408 28.435 15.5408 29.089 15.6028 29.6374C15.6442 30.1859 15.6856 30.5656 15.7063 30.7976C13.4093 31.5992 11.2572 31.9789 9.24995 31.9789L9.29134 32Z" fill="#231F20"/>
<path d="M27.0672 31.6413C26.6119 31.6413 26.1153 31.6413 25.6187 31.6203C25.122 31.6203 24.584 31.5992 24.0046 31.5992C23.4665 31.5992 22.9492 31.5992 22.4112 31.6203C21.8731 31.6203 21.3558 31.6413 20.8592 31.6413C20.8178 31.3671 20.8178 31.114 20.8592 30.8609C21.4179 30.8187 21.8318 30.7765 22.1008 30.6921C22.3698 30.6077 22.5353 30.4601 22.6181 30.2069C22.7009 29.9538 22.7423 29.553 22.7423 28.9835V23.3091C22.7423 22.6552 22.7216 22.17 22.6595 21.8325C22.6181 21.5161 22.4526 21.2841 22.2042 21.1575C21.9559 21.0309 21.5007 20.9255 20.8799 20.8411C20.8385 20.609 20.8385 20.377 20.8799 20.1872C21.6041 20.0606 22.3077 19.8918 22.9699 19.6809C23.6321 19.47 24.2736 19.259 24.8737 19.027L25.2876 19.1746C25.2876 19.702 25.2669 20.1872 25.2462 20.6512C25.2462 21.1153 25.2462 21.5372 25.2462 21.938V28.7303C25.2462 29.3843 25.2876 29.8694 25.3496 30.1437C25.4324 30.439 25.598 30.6077 25.8463 30.6921C26.0946 30.7765 26.5085 30.8187 27.0465 30.8609C27.0879 31.114 27.0879 31.3671 27.0465 31.6413H27.0672Z" fill="#231F20"/>
<path d="M34.8889 31.9367C33.8957 31.9367 33.1093 31.7047 32.5299 31.2195C31.9505 30.7343 31.6608 30.0382 31.6608 29.1312C31.6608 27.6546 31.6608 26.2202 31.7022 24.8279C31.7229 23.4357 31.7435 22.1068 31.7642 20.82H29.8811C29.8398 20.5669 29.8398 20.3349 29.8811 20.145C31.5159 19.4278 32.7575 18.2887 33.5853 16.6855C33.7094 16.6855 33.8543 16.6855 33.9784 16.6855C34.1026 16.6855 34.2268 16.7066 34.3302 16.7277C34.3302 17.1707 34.3095 17.6348 34.2888 18.12C34.2888 18.6051 34.2681 19.1325 34.2474 19.6598H38.0137C38.055 20.0395 38.055 20.4192 38.0137 20.82H34.2474C34.2061 22.0013 34.1854 23.2459 34.1854 24.5537C34.1854 25.8616 34.1854 27.1694 34.1854 28.4983C34.1854 29.8273 34.8889 30.5445 36.2754 30.5445C36.8755 30.5445 37.4342 30.3757 37.9309 30.0593C38.0757 30.2703 38.1792 30.5234 38.1999 30.8187C37.2273 31.557 36.1305 31.9367 34.8889 31.9367Z" fill="#231F20"/>
<path d="M49.8091 31.8735C48.7123 31.8735 48.0295 31.325 47.7398 30.207C46.5602 31.3461 45.36 31.9367 44.1391 31.9367C43.2907 31.9367 42.5871 31.6836 41.987 31.1562C41.4076 30.65 41.0972 29.9328 41.0972 29.0257C41.0972 26.7897 43.3321 25.3975 47.7811 24.828C47.7811 24.4272 47.7811 24.0053 47.7811 23.5834C47.7811 23.1615 47.7811 22.7185 47.7811 22.2334C47.7811 21.6427 47.5742 21.1787 47.1396 20.8622C46.7258 20.5247 46.2084 20.3771 45.6083 20.3771C45.1738 20.3771 44.822 20.4404 44.5116 20.588C44.5116 20.9677 44.4288 21.3685 44.2633 21.7693C44.0977 22.1701 43.8701 22.5076 43.5804 22.8029C43.2907 23.0771 42.9389 23.2248 42.525 23.2248C42.1525 23.2248 41.8835 23.1193 41.6766 22.9084C41.4696 22.6974 41.3662 22.4443 41.3662 22.1279C41.3662 21.7271 41.5524 21.3474 41.9249 20.9677C42.2974 20.6091 42.7733 20.2927 43.3528 20.0396C43.9322 19.7864 44.5323 19.5755 45.1738 19.4278C45.7946 19.2802 46.374 19.1958 46.8706 19.1958C47.4914 19.1958 48.0502 19.3013 48.5675 19.5333C49.0848 19.7653 49.5194 20.1029 49.8298 20.5458C50.1609 20.9888 50.3057 21.5373 50.3057 22.2123C50.3057 22.6131 50.3057 23.1404 50.285 23.7943C50.285 24.4483 50.2643 25.1444 50.2437 25.8616C50.2437 26.5999 50.223 27.296 50.2023 27.9499C50.2023 28.6038 50.1816 29.1312 50.1816 29.5531C50.1816 30.1015 50.4092 30.3547 50.8852 30.3547C51.1749 30.3547 51.6301 30.2492 52.2509 30.0593C52.313 30.1437 52.3544 30.2281 52.3958 30.3336C52.4165 30.439 52.4372 30.5234 52.4579 30.6078C52.044 31.0719 51.6094 31.3883 51.1542 31.5992C50.6989 31.8102 50.2437 31.8945 49.7677 31.8945L49.8091 31.8735ZM47.7398 29.5109L47.7811 25.7139C46.2498 25.9249 45.2152 26.2413 44.6357 26.7054C44.0563 27.1694 43.7873 27.739 43.7873 28.4562C43.7873 29.0468 43.9322 29.4898 44.2426 29.8062C44.553 30.1226 44.9254 30.2703 45.4014 30.2703C45.6911 30.2703 46.0429 30.207 46.4154 30.0593C46.7879 29.9117 47.2224 29.7429 47.7398 29.5109Z" fill="#231F20"/>
<path d="M62.494 31.6835C61.9146 31.6835 61.3145 31.6835 60.6937 31.6414C60.0729 31.6203 59.5142 31.5992 59.0382 31.5992C58.7692 31.5992 58.3967 31.5992 57.9208 31.5992C57.4448 31.5992 56.9482 31.5992 56.4515 31.6203C55.9549 31.6203 55.541 31.6203 55.2099 31.6203C55.1686 31.3671 55.1686 31.0929 55.2099 30.8187C55.9963 30.7343 56.5343 30.6499 56.8654 30.5866C57.1965 30.5023 57.4034 30.3335 57.4862 30.0804C57.569 29.8272 57.6104 29.3843 57.6104 28.7936V17.023C57.6104 16.3058 57.569 15.7996 57.4862 15.5042C57.4034 15.2089 57.1965 14.998 56.8447 14.9136C56.4929 14.8292 55.9549 14.7448 55.1892 14.6816C55.1479 14.4284 55.1479 14.1542 55.1892 13.88C55.541 13.88 55.9549 13.88 56.4308 13.88C56.9068 13.88 57.3827 13.88 57.8587 13.9011C58.3346 13.9011 58.7278 13.9011 59.0382 13.9011C59.5556 13.9011 60.135 13.9011 60.8179 13.88C61.48 13.88 62.0181 13.8589 62.4112 13.8589C64.4392 13.8589 65.9291 14.1964 66.9017 14.8714C67.8743 15.5464 68.3709 16.5168 68.3709 17.8035C68.3709 19.9551 67.0673 21.3895 64.4806 22.1489C65.3704 22.2333 66.1981 22.4443 66.9224 22.8029C67.6467 23.1615 68.2468 23.6466 68.702 24.3005C69.1573 24.9334 69.3642 25.735 69.3642 26.6842C69.3642 27.8866 69.0124 28.878 68.2882 29.6796C67.5846 30.4812 66.6948 31.0296 65.6394 31.3038C65.1842 31.4304 64.6875 31.5148 64.1495 31.557C63.6115 31.5992 63.0527 31.6414 62.4526 31.6414L62.494 31.6835ZM60.3626 21.9591C60.4868 21.9591 60.6109 21.9802 60.7144 21.9802H61.0248C62.6182 21.9802 63.7356 21.6849 64.4185 21.1153C65.0807 20.5247 65.4325 19.6598 65.4325 18.4785C65.4325 16.116 64.2323 14.9347 61.8318 14.9347C61.5835 14.9347 61.3559 14.9347 61.1283 14.9769C60.9006 14.998 60.6523 15.0402 60.3626 15.0613V21.9802V21.9591ZM61.8318 22.9927C61.6249 22.9927 61.3973 22.9927 61.1489 22.9927C60.9006 22.9927 60.6316 23.0138 60.3626 23.056V29.7429C60.3626 30.0382 60.3626 30.2702 60.3833 30.4601C61.1076 30.6077 61.7697 30.6921 62.3492 30.6921C63.6322 30.6921 64.6047 30.3757 65.3083 29.7218C66.0119 29.0679 66.3637 28.0764 66.3637 26.7475C66.3637 25.4185 65.9912 24.4904 65.2669 23.8998C64.5427 23.3091 63.3838 22.9927 61.8111 22.9927H61.8318Z" fill="#231F20"/>
<path d="M78.1178 31.9367C76.9176 31.9367 75.8622 31.6625 74.9517 31.1352C74.0412 30.6078 73.3583 29.8695 72.8617 28.9414C72.365 28.0132 72.1167 26.9374 72.1167 25.7139C72.1167 24.4061 72.3857 23.2459 72.9031 22.2756C73.4204 21.3052 74.1654 20.5458 75.0966 19.9974C76.0485 19.4489 77.1245 19.1958 78.3454 19.1958C79.5663 19.1958 80.601 19.47 81.4908 19.9974C82.3806 20.5458 83.0842 21.2841 83.5808 22.2334C84.0775 23.1826 84.3258 24.2584 84.3258 25.4397C84.3258 26.621 84.0568 27.7812 83.5395 28.7726C83.0221 29.764 82.2979 30.5445 81.3667 31.093C80.4355 31.6625 79.3594 31.9367 78.1178 31.9367ZM74.9103 25.3975C74.9103 27.1272 75.1793 28.4773 75.738 29.4898C76.2968 30.5023 77.1245 30.9875 78.242 30.9875C79.3594 30.9875 80.1044 30.5023 80.6838 29.5531C81.2425 28.6038 81.5322 27.3171 81.5322 25.7139C81.5322 24.0053 81.2425 22.6553 80.6838 21.6427C80.1251 20.6302 79.2973 20.1239 78.2213 20.1239C77.1452 20.1239 76.3382 20.588 75.7794 21.5162C75.2 22.4443 74.931 23.7311 74.931 25.3975H74.9103Z" fill="#231F20"/>
<path d="M92.6031 31.9367C91.4029 31.9367 90.3476 31.6625 89.4371 31.1352C88.5265 30.6078 87.8437 29.8695 87.347 28.9414C86.8504 28.0132 86.6021 26.9374 86.6021 25.7139C86.6021 24.4061 86.8711 23.2459 87.3884 22.2756C87.9057 21.3052 88.6507 20.5458 89.5819 19.9974C90.5338 19.4489 91.6099 19.1958 92.8308 19.1958C94.0517 19.1958 95.0864 19.47 95.9762 19.9974C96.866 20.5458 97.5696 21.2841 98.0662 22.2334C98.5628 23.1826 98.8112 24.2584 98.8112 25.4397C98.8112 26.621 98.5421 27.7812 98.0248 28.7726C97.5075 29.764 96.7832 30.5445 95.852 31.093C94.9208 31.6625 93.8447 31.9367 92.6031 31.9367ZM89.3957 25.3975C89.3957 27.1272 89.6647 28.4773 90.2234 29.4898C90.7821 30.5023 91.6099 30.9875 92.7273 30.9875C93.8448 30.9875 94.5897 30.5023 95.1691 29.5531C95.7279 28.6038 96.0176 27.3171 96.0176 25.7139C96.0176 24.0053 95.7279 22.6553 95.1691 21.6427C94.6104 20.6302 93.7827 20.1239 92.7066 20.1239C91.6306 20.1239 90.8235 20.588 90.2648 21.5162C89.6854 22.4443 89.4164 23.7311 89.4164 25.3975H89.3957Z" fill="#231F20"/>
<path d="M100.735 31.6414C100.735 31.6414 100.715 31.5148 100.715 31.4305V31.0297C100.715 31.0297 100.715 30.9031 100.735 30.8398C101.294 30.7976 101.708 30.7555 101.977 30.6711C102.246 30.5867 102.412 30.439 102.494 30.1859C102.577 29.9328 102.618 29.532 102.618 28.9624V16.2848C102.618 15.7574 102.577 15.3777 102.474 15.1035C102.37 14.8293 102.184 14.6605 101.894 14.5551C101.605 14.4496 101.17 14.3652 100.591 14.323C100.591 14.2597 100.57 14.1965 100.57 14.1543V13.8168C100.57 13.8168 100.57 13.7113 100.591 13.648C101.253 13.5636 101.936 13.4371 102.618 13.2472C103.301 13.0574 104.026 12.8253 104.75 12.5089L105.164 12.6566C105.164 13.0363 105.143 13.4582 105.122 13.9222C105.122 14.3863 105.122 14.9137 105.122 15.4621V24.8491C105.329 24.8491 105.495 24.8069 105.619 24.7436C105.743 24.6803 105.867 24.617 105.95 24.5326C105.992 24.4905 106.054 24.4272 106.157 24.3428C106.261 24.2584 106.426 24.0686 106.674 23.8154C106.923 23.5623 107.274 23.1826 107.75 22.6763C108.185 22.1912 108.516 21.8115 108.785 21.5162C109.054 21.2208 109.178 21.0099 109.178 20.8201C109.178 20.6935 109.075 20.5669 108.847 20.4825C108.62 20.3982 108.33 20.3349 107.937 20.3138C107.937 20.2505 107.916 20.1872 107.916 20.1028V19.7021C107.916 19.7021 107.916 19.5755 107.937 19.4911C108.268 19.4911 108.682 19.4911 109.199 19.5122C109.696 19.5122 110.151 19.5333 110.544 19.5333C110.751 19.5333 111.02 19.5333 111.392 19.5333C111.765 19.5333 112.137 19.5333 112.531 19.5333H113.379C113.379 19.5333 113.4 19.6599 113.42 19.7442C113.42 19.8075 113.42 19.8708 113.42 19.9552C113.42 20.0396 113.42 20.0818 113.42 20.145C113.42 20.2083 113.4 20.2716 113.379 20.3349C112.51 20.3349 111.786 20.5669 111.186 20.9888C110.585 21.4107 110.027 21.8959 109.468 22.4443L107.688 24.2584L111.123 28.857C111.496 29.3421 111.786 29.7218 112.034 30.0171C112.282 30.2914 112.531 30.5023 112.82 30.6078C113.11 30.7344 113.483 30.7976 113.979 30.8398C114.021 31.0719 114.021 31.3461 113.979 31.6203C113.772 31.6203 113.441 31.6203 113.027 31.5992C112.613 31.5992 111.951 31.5781 111.061 31.5781H110.461C110.192 31.5781 109.944 31.5781 109.716 31.6203C109.716 31.4305 109.613 31.1773 109.427 30.8398C109.22 30.5023 109.075 30.2703 108.951 30.1226C108.909 30.0382 108.785 29.8484 108.578 29.5742C108.371 29.2999 108.144 28.9624 107.875 28.5827C107.606 28.203 107.316 27.8233 107.047 27.4226C106.778 27.0218 106.509 26.6843 106.281 26.3678C106.095 26.1147 105.929 25.9249 105.764 25.7772C105.598 25.6295 105.412 25.5663 105.184 25.5663V28.7093C105.184 29.3632 105.205 29.8484 105.267 30.1226C105.329 30.4179 105.474 30.5867 105.681 30.6711C105.888 30.7555 106.24 30.7976 106.716 30.8398C106.757 31.093 106.757 31.3461 106.716 31.6203C106.281 31.6203 105.826 31.6203 105.371 31.5992C104.915 31.5781 104.398 31.5781 103.839 31.5781C103.281 31.5781 102.784 31.5781 102.267 31.5992C101.749 31.5992 101.253 31.6203 100.756 31.6203L100.735 31.6414Z" fill="#231F20"/>
<path d="M22.1006 14.7448C22.1006 14.2597 22.2661 13.8378 22.6179 13.5003C22.9697 13.1628 23.3629 12.994 23.8388 12.994C24.3148 12.994 24.708 13.1628 25.0391 13.5003C25.3701 13.8378 25.5564 14.2386 25.5564 14.7237C25.5564 15.1667 25.3908 15.5675 25.0597 15.9261C24.7286 16.2847 24.3148 16.4746 23.7974 16.4746C23.3422 16.4746 22.9283 16.3058 22.5972 15.9683C22.2661 15.6308 22.1006 15.23 22.1006 14.7448Z" fill="white"/>
</g>
<defs>
<radialGradient id="paint0_radial_430_397" cx="0" cy="0" r="1" gradientUnits="userSpaceOnUse" gradientTransform="translate(23.8387 8.22676) rotate(90) scale(8.22676 8.07043)">
<stop stop-color="white"/>
<stop offset="1" stop-color="#66AD47"/>
</radialGradient>
<radialGradient id="paint1_radial_430_397" cx="0" cy="0" r="1" gradientUnits="userSpaceOnUse" gradientTransform="translate(23.8387 10.2097) rotate(90) scale(6.18062 6.06317)">
<stop stop-color="white"/>
<stop offset="1" stop-color="#B36FA6"/>
</radialGradient>
<radialGradient id="paint2_radial_430_397" cx="0" cy="0" r="1" gradientUnits="userSpaceOnUse" gradientTransform="translate(23.8386 12.1925) rotate(90) scale(4.11338 4.03521)">
<stop offset="0.23" stop-color="white"/>
<stop offset="1" stop-color="#E19F3F"/>
</radialGradient>
<clipPath id="clip0_430_397">
<rect width="114" height="32" fill="white"/>
</clipPath>
</defs>
</svg>
